<?xml version="1.0" encoding="utf-8"?>
<!-- Generator: Adobe Illustrator 16.0.0, SVG Export Plug-In . SVG Version: 6.00 Build 0)  -->
<!DOCTYPE svg PUBLIC "-//W3C//DTD SVG 1.1//EN" "http://www.w3.org/Graphics/SVG/1.1/DTD/svg11.dtd">
<svg version="1.1" id="Layer_1" xmlns="http://www.w3.org/2000/svg" xmlns:xlink="http://www.w3.org/1999/xlink" x="0px" y="0px"
	 width="347.845px" height="249.013px" viewBox="0 0 347.845 249.013" enable-background="new 0 0 347.845 249.013"
	 xml:space="preserve">
<g>
	<path fill="#4B81AB" d="M347.845,216.987c-69.224,39.686-157.012,15.882-200.566-38.492
		C177.334,210.463,293.317,236.911,347.845,216.987z"/>
	<path fill="#4B81AB" d="M68.947,110.972"/>
	<path fill="#4B81AB" d="M298.77,240.185c0,0-163.87,18.005-180.527-110.3c-3.033-53.509,40.069-79.917,68.88-78.788
		c76.306-3.828,92.52,123.683-10.804,113.673c116.15,50.991,152.95-154.754-16.651-164.552
		C79.075-5.176-16.366,90.256,41.709,199.209c0,0-9.009-58.969,29.714-85.987c0,0-24.313,41.418,18.455,91.385
		c0,0-8.556-26.112-1.799-50.421C113.74,289.704,298.77,240.185,298.77,240.185z"/>
	<path fill="#4B81AB" d="M193.196,156.555c104.001-7.769,25.319-152.28-48.954-80.026
		C234.398,39.053,256.003,140.685,193.196,156.555z"/>
	<path fill="#4B81AB" d="M209.412,86.319c-12.441-14.012-32.701-13.613-46.6-3.37C182.899,80.475,191.455,80.18,209.412,86.319z"/>
	<path fill="#4B81AB" d="M151.668,246.704c0,0-44.23-15.19-57.061-54.695C93.765,217.155,118.412,247.049,151.668,246.704z"/>
	<path fill="#4B81AB" d="M113.51,241.982c-22.863-16.636-56.383-62.468-56.497-101.741
		C45.644,192.852,71.476,229.826,113.51,241.982z"/>
	<path fill="#4B81AB" d="M45.644,180.942c9.455,22.435,18.235,43.599,35.458,60.613C60.388,232.974,43.959,205.118,45.644,180.942z"
		/>
	<path fill="#4B81AB" d="M48.024,235.874c-61.454-43.05-63.266-142.233-9.241-190.187C0.001,118.406,12.444,178.495,48.024,235.874
		L48.024,235.874z"/>
</g>
</svg>
